<svg height="512pt" viewBox="-50 0 511 512" width="512pt" xmlns="http://www.w3.org/2000/svg"><path d="m126.511719 271.828125c26.601562 28.261719 70.128906 28.261719 96.726562 0l10.367188-11.019531-14.222657-5.507813c-3.476562-1.34375-5.769531-4.691406-5.769531-8.421875v-28.660156c-10.738281 7.40625-23.742187 11.757812-37.746093 11.757812-14.660157 0-27.542969-4.023437-38.078126-10.753906v27.332032c0 3.925781-2.410156 7.449218-6.070312 8.867187l-15.128906 5.863281zm0 0" fill="#eebda4"/><path d="m157.417969 271.828125c-4.738281-5.039063-2.871094-13.273437 3.578125-15.777344l1.628906-.628906c3.660156-1.421875 6.070312-4.941406 6.070312-8.867187v-16.914063c-11.710937-1.085937-22.125-4.808594-30.90625-10.417969v27.332032c0 3.925781-2.410156 7.449218-6.070312 8.867187l-15.128906 5.863281 9.921875 10.542969c17.234375 18.3125 41.578125 24.746094 63.816406 19.324219-12.082031-2.945313-23.546875-9.375-32.910156-19.324219zm0 0" fill="#e6b49e"/><path d="m255.339844 434.097656c0-43.023437 34.878906-77.902344 77.902344-77.902344 6.117187 0 12.054687.726563 17.765624 2.058594v-8.804687c0-42.289063-37.097656-57.539063-37.097656-57.539063l-81.417968-31.53125-10.492188 11.148438c-25.90625 27.527344-68.296875 27.527344-94.203125.003906l-10.0625-10.691406-80.136719 31.070312s-37.097656 15.25-37.097656 57.539063v97.5625c0 9.335937 7.570312 16.90625 16.90625 16.90625h243.859375c-3.808594-9.1875-5.925781-19.253907-5.925781-29.820313zm0 0" fill="#00c3ff"/><path d="m31.40625 447.011719v-111.984375c0-26.585938 14.65625-42.480469 25.546875-50.621094l-19.355469 7.503906s-37.097656 15.25-37.097656 57.539063v97.5625c0 9.335937 7.570312 16.90625 16.90625 16.90625h30.90625c-9.335938 0-16.90625-7.566407-16.90625-16.90625zm0 0" fill="#00aaf0"/><path d="m174.898438 0c-50.113282 0-90.734376 40.621094-90.734376 90.734375v36.542969c6.066407-5.621094 16.722657-8.675782 25.144532-7.550782v-4.519531c0-3.59375 3.066406-6.433593 6.625-6.164062 35.082031 2.519531 68.75-8.628907 95.746094-26.261719 2.519531-1.648438 5.855468-1.238281 7.90625.964844 23.078124 24.804687 20.90625 23.84375 20.90625 27.085937v8.875c9.230468-1.382812 19.449218 1.46875 25.136718 6.757813v-35.730469c0-50.113281-40.621094-90.734375-90.730468-90.734375zm0 0" fill="#75798a"/><path d="m115.070312 90.734375c0-44.84375 32.53125-82.082031 75.28125-89.417969-5.023437-.863281-10.183593-1.316406-15.453124-1.316406-50.113282 0-90.734376 40.621094-90.734376 90.734375v36.542969c6.066407-5.621094 16.722657-8.675782 25.144532-7.550782v-4.519531c0-3.300781 2.585937-5.957031 5.761718-6.160156zm0 0" fill="#7e8292"/><path d="m241.507812 116.664062v49.703126c0 .539062-.027343 1.070312-.042968 1.609374 17.589844 2.660157 31.367187-10.046874 31.367187-25.652343 0-15.640625-13.789062-28.289063-31.324219-25.660157zm0 0" fill="#eebda4"/><path d="m108.292969 166.367188v-49.683594c-15.3125-2.046875-31.324219 9.707031-31.324219 25.636718 0 15.589844 13.746094 28.320313 31.363281 25.652344-.015625-.535156-.039062-1.070312-.039062-1.605468zm0 0" fill="#eebda4"/><path d="m265.460938 124.25c-5.707032-5.816406-14.253907-9.039062-23.953126-7.585938v49.703126c0 .539062-.027343 1.070312-.042968 1.605468 9.730468 1.476563 18.285156-1.761718 23.996094-7.582031zm0 0" fill="#e6b49e"/><path d="m108.292969 160.394531c-4.617188-4.707031-7.371094-11.101562-7.371094-18.074219 0-6.753906 2.886719-12.753906 7.371094-17.273437v-8.363281c-15.3125-2.046875-31.324219 9.707031-31.324219 25.636718 0 15.589844 13.746094 28.320313 31.363281 25.652344-.015625-.535156-.039062-1.066406-.039062-1.605468zm0 0" fill="#e6b49e"/><path d="m219.582031 80.699219c-2.046875-2.199219-5.382812-2.609375-7.902343-.960938-26.996094 17.632813-62.695313 28.78125-97.777344 26.261719-3.554688-.273438-6.625 2.566406-6.625 6.164062v54.203126c0 34.839843 27.296875 66.65625 68.585937 66.65625 36.757813 0 66.660157-29.902344 66.660157-66.65625v-58.582032c0-3.238281.136718-2.277344-22.941407-27.085937zm0 0" fill="#f5c5a9"/><path d="m138.183594 166.367188v-60.730469c-8.050782.789062-16.179688.945312-24.28125.363281-3.554688-.273438-6.625 2.566406-6.625 6.164062v54.203126c0 34.839843 27.296875 66.65625 68.585937 66.65625 5.128907 0 10.117188-.601563 14.917969-1.703126-32.195312-7.003906-52.597656-34.84375-52.597656-64.953124zm0 0" fill="#eebda4"/><path d="m71.363281 463.917969v-99.929688c0-4.269531-3.460937-7.730469-7.726562-7.730469-4.269531 0-7.726563 3.460938-7.726563 7.730469v99.929688zm0 0" fill="#00aaf0"/><path d="m411.148438 432.855469c0 43.710937-35.4375 79.144531-79.148438 79.144531s-79.144531-35.433594-79.144531-79.144531c0-43.710938 35.433593-79.144531 79.144531-79.144531s79.148438 35.433593 79.148438 79.144531zm0 0" fill="#f77c7c"/><path d="m281.703125 432.855469c0-38.78125 27.902344-71.027344 64.722656-77.8125-4.679687-.859375-9.496093-1.332031-14.425781-1.332031-43.710938 0-79.144531 35.433593-79.144531 79.144531 0 43.710937 35.433593 79.144531 79.144531 79.144531 4.929688 0 9.746094-.472656 14.425781-1.335938-36.820312-6.78125-64.722656-39.027343-64.722656-77.808593zm0 0" fill="#f25c5c"/><path d="m374.238281 420.152344h-27.179687c-1.300782 0-2.355469-1.054688-2.355469-2.355469v-27.179687c0-2.199219-1.78125-3.980469-3.980469-3.980469h-17.441406c-2.199219 0-3.980469 1.78125-3.980469 3.980469v27.179687c0 1.300781-1.054687 2.355469-2.355469 2.355469h-27.183593c-2.195313 0-3.976563 1.78125-3.976563 3.980468v17.445313c0 2.195313 1.78125 3.976563 3.976563 3.976563h27.183593c1.300782 0 2.355469 1.054687 2.355469 2.355468v27.183594c0 2.195312 1.78125 3.976562 3.980469 3.976562h17.441406c2.199219 0 3.980469-1.78125 3.980469-3.976562v-27.183594c0-1.300781 1.054687-2.355468 2.355469-2.355468h27.179687c2.199219 0 3.980469-1.78125 3.980469-3.976563v-17.445313c0-2.195312-1.78125-3.980468-3.980469-3.980468zm0 0" fill="#e4eaf8"/><g fill="#d8dce5"><path d="m338.308594 417.796875v-27.179687c0-1.929688 1.375-3.539063 3.195312-3.902344-.253906-.046875-.511718-.078125-.78125-.078125h-17.441406c-2.199219 0-3.980469 1.78125-3.980469 3.980469v27.179687c0 1.300781-1.054687 2.355469-2.355469 2.355469h19.007813c1.300781 0 2.355469-1.050782 2.355469-2.355469zm0 0"/><path d="m338.308594 475.09375v-27.179688c0-1.300781-1.058594-2.355468-2.359375-2.355468h-19.003907c1.300782 0 2.355469 1.054687 2.355469 2.355468v27.179688c0 2.195312 1.78125 3.980469 3.976563 3.980469h17.445312c.269532 0 .527344-.027344.78125-.082031-1.820312-.363282-3.195312-1.96875-3.195312-3.898438zm0 0"/><path d="m304.789062 441.578125v-17.445313c0-2.199218 1.78125-3.980468 3.980469-3.980468h-19.007812c-2.195313 0-3.976563 1.78125-3.976563 3.980468v17.445313c0 2.195313 1.78125 3.976563 3.976563 3.976563h19.007812c-2.195312 0-3.980469-1.78125-3.980469-3.976563zm0 0"/></g></svg>