<?xml version="1.0" encoding="iso-8859-1"?>
<!-- Generator: Adobe Illustrator 19.0.0, SVG Export Plug-In . SVG Version: 6.00 Build 0)  -->
<svg version="1.1" id="Layer_1" xmlns="http://www.w3.org/2000/svg" xmlns:xlink="http://www.w3.org/1999/xlink" x="0px" y="0px"
	 viewBox="0 0 512.01 512.01" style="enable-background:new 0 0 512.01 512.01;" xml:space="preserve">
<path style="fill:#A0BF7C;" d="M10.672,208.005l53.333,9.6v281.6h128v-192c0-7.057,5.743-12.8,12.8-12.8h102.4
	c7.057,0,12.8,5.743,12.8,12.8v192h128v-281.6l54.4-8.533l-246.4-199.68L10.672,208.005z"/>
<path style="fill:#573A32;" d="M25.605,230.405h25.6v281.6h153.6v-204.8h102.4v204.8h153.6v-281.6h25.6
	c10.94,0,20.668-6.946,24.218-17.289c3.55-10.342,0.137-21.803-8.499-28.518l-230.4-179.2c-4.625-3.593-10.172-5.393-15.718-5.393
	c-5.547,0-11.093,1.801-15.718,5.393l-230.4,179.2c-8.636,6.716-12.049,18.176-8.499,28.518
	C4.937,223.459,14.674,230.405,25.605,230.405z M256.005,25.605l230.4,179.2h-51.2v281.6h-102.4v-179.2
	c0-14.14-11.46-25.6-25.6-25.6h-102.4c-14.14,0-25.6,11.46-25.6,25.6v179.2h-102.4v-281.6h-51.2L256.005,25.605z"/>
<g>
</g>
<g>
</g>
<g>
</g>
<g>
</g>
<g>
</g>
<g>
</g>
<g>
</g>
<g>
</g>
<g>
</g>
<g>
</g>
<g>
</g>
<g>
</g>
<g>
</g>
<g>
</g>
<g>
</g>
</svg>
