<svg id="Capa_1" enable-background="new 0 0 512 512" height="512" viewBox="0 0 512 512" width="512" xmlns="http://www.w3.org/2000/svg"><path d="m435.055 512h-296.364c-8.53 0-15.445-6.915-15.445-15.445v-393.545c0-8.53 6.915-15.445 15.445-15.445h296.365c8.53 0 15.445 6.915 15.445 15.445v393.545c-.001 8.53-6.916 15.445-15.446 15.445z" fill="#bdbdbd"/><path d="m404.182 468.217h-296.364c-8.53 0-15.445-6.915-15.445-15.445v-393.545c0-8.53 6.915-15.445 15.445-15.445h296.365c8.53 0 15.445 6.915 15.445 15.445v393.545c-.001 8.531-6.916 15.445-15.446 15.445z" fill="#d4d4d4"/><path d="m373.309 424.435h-296.364c-8.53 0-15.445-6.915-15.445-15.445v-393.545c0-8.53 6.915-15.445 15.445-15.445h296.365c8.53 0 15.445 6.915 15.445 15.445v393.545c-.001 8.53-6.916 15.445-15.446 15.445z" fill="#f5f5f5"/><path d="m357.881 0v424.435h15.437c8.525 0 15.436-6.918 15.436-15.453v-393.529c0-8.535-6.911-15.453-15.437-15.453z" fill="#e6e6e6"/><path d="m169.98 344.127h-53.57c-2.276 0-4.121-1.845-4.121-4.121v-53.569c0-2.276 1.845-4.121 4.121-4.121h53.569c2.276 0 4.121 1.845 4.121 4.121v53.569c.001 2.276-1.844 4.121-4.12 4.121z" fill="#ff3d7a"/><path d="m212.582 302.194h124.196c4.142 0 7.5-3.358 7.5-7.5s-3.358-7.5-7.5-7.5h-124.196c-4.142 0-7.5 3.358-7.5 7.5s3.357 7.5 7.5 7.5z" fill="#7488ed"/><path d="m336.778 319.235h-124.196c-4.142 0-7.5 3.358-7.5 7.5s3.358 7.5 7.5 7.5h124.196c4.142 0 7.5-3.358 7.5-7.5s-3.358-7.5-7.5-7.5z" fill="#7488ed"/><circle cx="225.095" cy="89.111" fill="#d47f6c" r="37.087"/><path d="m225.095 52.024c-5.517 0-10.747 1.214-15.453 3.374 12.765 5.861 21.634 18.747 21.634 33.712s-8.869 27.852-21.634 33.712c4.705 2.16 9.936 3.374 15.453 3.374 20.482 0 37.087-16.604 37.087-37.087s-16.605-37.085-37.087-37.085z" fill="#a65d4e"/><path d="m258.06 229.215h-65.932c-13.655 0-24.724-11.069-24.724-24.724v-35.026c0-23.896 19.372-43.268 43.268-43.268h28.845c23.896 0 43.268 19.372 43.268 43.268v35.026c0 13.655-11.07 24.724-24.725 24.724z" fill="#8c9eff"/><path d="m239.517 126.197h-28.845c-.346 0-.687.018-1.03.026 23.419.549 42.237 19.691 42.237 43.242v35.026c0 13.655-11.069 24.724-24.724 24.724h30.905c13.655 0 24.724-11.069 24.724-24.724v-35.026c.001-23.896-19.371-43.268-43.267-43.268z" fill="#7488ed"/><path d="m235.09 153.579h-19.99l-5.458-27.382h30.905z" fill="#ffb300"/><path d="m244.256 199.981-18.293 8.81c-.548.264-1.187.264-1.736 0l-18.293-8.81c-.843-.406-1.292-1.342-1.08-2.254l10.247-44.148h19.99l10.247 44.148c.21.911-.239 1.848-1.082 2.254z" fill="#ffca28"/></svg>