<svg height="512pt" viewBox="0 -9 512.001 512" width="512pt" xmlns="http://www.w3.org/2000/svg"><path d="m395.515625 288.957031c-3.078125-1.191406-5.105469-4.152343-5.105469-7.453125v-25.363281c-9.507812 6.554687-21.015625 10.40625-33.410156 10.40625-12.972656 0-24.371094-3.558594-33.695312-9.519531v24.191406c0 3.472656-2.136719 6.589844-5.375 7.847656l-10.664063 4.132813 7.605469 2.945312s17.03125 7.023438 28.179687 24.679688c19.519531 4.539062 40.777344-1.199219 55.878907-17.242188l9.175781-9.75zm0 0" fill="#eebda4"/><path d="m346.382812 296.144531c-2.691406-1.042969-2.691406-4.851562 0-5.894531l3.058594-1.1875c3.242188-1.253906 5.375-4.371094 5.375-7.84375v-14.710938c-12.070312-.375-22.714844-3.859374-31.511718-9.480468v24.191406c0 3.472656-2.136719 6.589844-5.375 7.84375l-10.664063 4.136719 7.601563 2.945312s17.035156 7.023438 28.183593 24.679688c10.132813 2.355469 20.730469 1.933593 30.695313-1.25-11.144532-16.734375-27.363282-23.429688-27.363282-23.429688zm0 0" fill="#e6b49e"/><path d="m479.171875 321.355469-72.054687-27.902344-9.285157 9.863281c-14.949219 15.886719-36.105469 21.40625-55.375 16.574219 5.71875 8.703125 10.046875 20.085937 10.046875 34.628906v121.96875c0 9.472657-7.679687 17.152344-17.152344 17.152344h161.6875c8.261719 0 14.960938-6.699219 14.960938-14.960937v-106.398438c0-37.429688-32.828125-50.925781-32.828125-50.925781zm0 0" fill="#00aaf0"/><path d="m384.757812 476.488281v-121.972656c0-15.214844-4.738281-26.964844-10.851562-35.8125-10.1875 3.386719-21.089844 3.785156-31.449219 1.1875 5.71875 8.703125 10.046875 20.085937 10.046875 34.625v121.972656c0 9.472657-7.679687 17.152344-17.152344 17.152344h32.257813c9.472656 0 17.148437-7.679687 17.148437-17.152344zm0 0" fill="#039add"/><path d="m356.144531 63.019531c-44.347656 0-80.296875 35.949219-80.296875 80.296875v32.34375c5.367188-4.976562 14.796875-7.679687 22.25-6.683594v-4.003906c0-3.179687 2.714844-5.691406 5.867188-5.453125 31.042968 2.230469 60.84375-7.636719 84.730468-23.242187 2.230469-1.457032 5.183594-1.09375 6.996094.855468 20.421875 21.953126 18.503906 21.101563 18.503906 23.96875v7.855469c8.167969-1.222656 17.210938 1.300781 22.246094 5.984375v-31.625c0-44.347656-35.949218-80.296875-80.296875-80.296875zm0 0" fill="#5e6377"/><path d="m306.730469 143.316406c0-39.066406 27.898437-71.597656 64.855469-78.800781-4.996094-.972656-10.15625-1.5-15.441407-1.5-44.347656 0-80.296875 35.953125-80.296875 80.300781v32.339844c5.367188-4.972656 14.796875-7.675781 22.25-6.683594v-4c0-3.179687 2.714844-5.691406 5.867188-5.453125.921875.066407 1.84375.117188 2.765625.164063zm0 0" fill="#52586d"/><path d="m415.09375 166.265625v43.984375c0 .476562-.023438.949219-.035156 1.425781 15.566406 2.355469 27.757812-8.890625 27.757812-22.703125 0-13.84375-12.203125-25.035156-27.722656-22.707031zm0 0" fill="#eebda4"/><path d="m297.199219 210.25v-43.96875c-13.550781-1.808594-27.71875 8.589844-27.71875 22.6875 0 13.796875 12.164062 25.0625 27.753906 22.703125-.011719-.472656-.035156-.945313-.035156-1.421875zm0 0" fill="#eebda4"/><path d="m436.714844 173.414062c-5.046875-5.421874-12.796875-8.472656-21.621094-7.148437v43.984375c0 .476562-.023438.949219-.035156 1.425781 8.851562 1.339844 16.605468-1.722656 21.65625-7.148437zm0 0" fill="#e6b49e"/><path d="m297.199219 204.527344c-3.832031-4.117188-6.101563-9.601563-6.101563-15.554688 0-5.769531 2.371094-10.914062 6.101563-14.863281v-7.828125c-13.550781-1.808594-27.71875 8.589844-27.71875 22.6875 0 13.796875 12.164062 25.0625 27.753906 22.703125-.011719-.472656-.035156-.945313-.035156-1.421875zm0 0" fill="#e6b49e"/><path d="m395.691406 134.4375c-1.8125-1.949219-4.765625-2.308594-6.996094-.851562-23.886718 15.605468-55.484374 25.46875-86.527343 23.238281-3.148438-.238281-5.867188 2.273437-5.867188 5.457031v47.96875c0 30.832031 24.160157 58.992188 60.699219 58.992188 32.527344 0 58.992188-26.464844 58.992188-58.992188v-51.839844c0-2.867187.121093-2.019531-20.300782-23.972656zm0 0" fill="#f5c5a9"/><path d="m327.1875 210.25v-54.132812c-8.273438 1.027343-16.667969 1.308593-25.019531.707031-3.148438-.238281-5.867188 2.273437-5.867188 5.457031v47.96875c0 30.832031 24.160157 58.992188 60.699219 58.992188 5.15625 0 10.15625-.667969 14.925781-1.917969-27.449219-6.828125-44.738281-30.992188-44.738281-57.074219zm0 0" fill="#eebda4"/><path d="m127.839844 275.769531c26.988281 28.675781 71.144531 28.675781 98.132812 0l10.515625-11.175781-14.429687-5.589844c-3.527344-1.367187-5.855469-4.761718-5.855469-8.542968v-29.078126c-10.894531 7.515626-24.085937 11.933594-38.296875 11.933594-14.871094 0-27.9375-4.085937-38.628906-10.914062v27.730468c0 3.980469-2.445313 7.554688-6.160156 8.992188l-15.34375 5.949219zm0 0" fill="#eebda4"/><path d="m157.695312 275.769531c-4.8125-5.109375-2.917968-13.464843 3.625-16.003906l1.65625-.640625c3.710938-1.4375 6.160157-5.011719 6.160157-8.992188v-17.3125c-11.273438-1.273437-21.324219-4.964843-29.855469-10.417968v27.730468c0 3.984376-2.445312 7.554688-6.160156 8.996094l-15.347656 5.949219 10.066406 10.695313c17.292968 18.371093 41.632812 24.949218 63.992187 19.777343-12.53125-2.902343-24.445312-9.480469-34.136719-19.78125zm0 0" fill="#e6b49e"/><path d="m317.957031 296.144531-82.597656-31.988281-10.644531 11.308594c-26.28125 27.925781-69.289063 27.929687-95.574219.003906l-10.203125-10.84375-81.304688 31.519531s-37.632812 15.472657-37.632812 58.375v121.96875c0 9.472657 7.679688 17.152344 17.152344 17.152344h321.285156c9.472656 0 17.152344-7.679687 17.152344-17.152344v-121.972656c0-42.898437-37.632813-58.371094-37.632813-58.371094zm0 0" fill="#00c3ff"/><g fill="#00aaf0"><path d="m30.886719 476.488281v-137.414062c0-24.988281 12.761719-40.65625 23.421875-49.394531l-16.671875 6.464843s-37.636719 15.472657-37.636719 58.371094v121.972656c0 9.472657 7.679688 17.152344 17.152344 17.152344h30.882812c-9.472656 0-17.148437-7.679687-17.148437-17.152344zm0 0"/><path d="m71.773438 493.640625v-124.375c0-4.265625-3.457032-7.722656-7.71875-7.722656-4.265626 0-7.722657 3.457031-7.722657 7.722656v124.375zm0 0"/><path d="m299.261719 493.640625v-124.375c0-4.265625-3.457031-7.722656-7.722657-7.722656-4.261718 0-7.71875 3.457031-7.71875 7.722656v124.375zm0 0"/></g><path d="m176.929688 0c-50.839844 0-92.050782 41.210938-92.050782 92.050781v37.074219c6.152344-5.703125 16.964844-8.800781 25.507813-7.660156v-4.589844c0-3.644531 3.113281-6.527344 6.722656-6.25 35.589844 2.554688 69.746094-8.753906 97.132813-26.644531 2.558593-1.671875 5.941406-1.253907 8.019531.980469 23.410156 25.164062 21.210937 24.191406 21.210937 27.476562v9.007812c9.367188-1.40625 19.730469 1.488282 25.503906 6.855469v-36.253906c0-50.835937-41.210937-92.046875-92.046874-92.046875zm0 0" fill="#5e6377"/><path d="m115.761719 92.050781c0-45.578125 33.121093-83.410156 76.605469-90.753906-5.019532-.847656-10.175782-1.296875-15.441407-1.296875-50.835937 0-92.046875 41.210938-92.046875 92.050781v37.074219c6.152344-5.703125 16.960938-8.800781 25.507813-7.660156v-4.585938c0-3.183594 2.371093-5.785156 5.375-6.210937zm0 0" fill="#52586d"/><path d="m244.503906 118.355469v50.425781c0 .546875-.03125 1.085938-.042968 1.628906 17.84375 2.703125 31.820312-10.191406 31.820312-26.023437 0-15.867188-13.988281-28.695313-31.777344-26.03125zm0 0" fill="#eebda4"/><path d="m109.355469 168.78125v-50.40625c-15.535157-2.074219-31.777344 9.847656-31.777344 26.011719 0 15.8125 13.945313 28.730469 31.820313 26.023437-.015626-.542968-.042969-1.085937-.042969-1.628906zm0 0" fill="#eebda4"/><path d="m268.695312 125.945312c-5.789062-5.832031-14.414062-9.054687-24.191406-7.589843v50.425781c0 .546875-.027344 1.085938-.042968 1.628906 9.808593 1.488282 18.441406-1.746094 24.234374-7.585937zm0 0" fill="#e6b49e"/><path d="m109.355469 162.828125c-4.746094-4.785156-7.585938-11.316406-7.585938-18.441406 0-6.910157 2.972657-13.039063 7.585938-17.636719v-8.375c-15.535157-2.074219-31.777344 9.847656-31.777344 26.011719 0 15.8125 13.945313 28.730469 31.816406 26.023437-.011719-.542968-.039062-1.085937-.039062-1.628906zm0 0" fill="#e6b49e"/><path d="m222.261719 81.871094c-2.078125-2.230469-5.460938-2.648438-8.019531-.976563-27.386719 17.890625-63.601563 29.199219-99.191407 26.640625-3.609375-.273437-6.722656 2.609375-6.722656 6.253906v54.992188c0 35.34375 27.691406 67.621094 69.582031 67.621094 37.285156 0 67.621094-30.335938 67.621094-67.621094v-59.429688c0-3.285156.144531-2.3125-23.269531-27.480468zm0 0" fill="#f5c5a9"/><path d="m139.210938 168.78125v-61.5625c-8.011719.757812-16.101563.894531-24.160157.316406-3.609375-.273437-6.722656 2.605469-6.722656 6.253906v54.992188c0 35.339844 27.691406 67.621094 69.582031 67.621094 5.121094 0 10.101563-.589844 14.898438-1.675782-32.800782-7.019531-53.597656-35.324218-53.597656-65.945312zm0 0" fill="#eebda4"/></svg>