<svg height="512pt" viewBox="-14 0 512 512.00025" width="512pt" xmlns="http://www.w3.org/2000/svg"><path d="m354.589844 87.683594 71.070312 55.519531v-101.527344h-71.070312zm0 0" fill="#8d909f"/><path d="m394.460938 94.6875c-5.65625-4.417969-8.964844-11.199219-8.964844-18.375v-34.636719h-30.90625v46.007813l71.070312 55.519531v-24.144531zm0 0" fill="#75798a"/><path d="m438.523438 0h-96.800782c-3.554687 0-6.4375 2.882812-6.4375 6.441406v31.886719c0 3.554687 2.882813 6.4375 6.4375 6.4375h96.800782c3.558593 0 6.441406-2.882813 6.441406-6.4375v-31.886719c0-3.558594-2.882813-6.441406-6.441406-6.441406zm0 0" fill="#75798a"/><path d="m434.5 470.324219v-269.589844l-184.886719-144.429687c-4.417969-3.449219-10.617187-3.449219-15.035156 0l-184.886719 144.429687v269.589844zm0 0" fill="#e4eaf8"/><path d="m249.613281 56.304688c-4.417969-3.449219-10.617187-3.449219-15.035156 0l-184.886719 144.429687v269.589844h30.90625v-256.878907c0-8.023437 3.695313-15.597656 10.019532-20.539062l166.933593-130.402344zm0 0" fill="#d8dce5"/><path d="m271.675781 263.902344h-59.160156c-34.316406 0-62.136719 27.820312-62.136719 62.140625v144.28125h183.433594v-144.28125c0-34.320313-27.820312-62.140625-62.136719-62.140625zm0 0" fill="#8d909f"/><path d="m243.421875 263.902344h-30.90625c-34.316406 0-62.136719 27.820312-62.136719 62.140625v144.28125h30.90625v-144.28125c0-34.320313 27.820313-62.140625 62.136719-62.140625zm0 0" fill="#75798a"/><path d="m479.496094 182.167969-229.882813-179.578125c-4.417969-3.453125-10.617187-3.453125-15.035156 0l-229.882813 179.578125c-5.316406 4.148437-6.257812 11.824219-2.105468 17.136719l12.523437 16.035156c4.152344 5.3125 11.828125 6.257812 17.140625 2.105468l202.324219-158.050781c4.417969-3.449219 10.617187-3.449219 15.035156 0l202.324219 158.050781c5.3125 4.152344 12.988281 3.207032 17.136719-2.105468l12.527343-16.035156c4.152344-5.3125 3.207032-12.988282-2.105468-17.136719zm0 0" fill="#f25c5c"/><path d="m33.496094 199.308594c-4.152344-5.316406-3.210938-12.992188 2.105468-17.140625l221.949219-173.378907-7.9375-6.199218c-4.417969-3.453125-10.617187-3.453125-15.035156 0l-229.882813 179.578125c-5.316406 4.148437-6.257812 11.824219-2.105468 17.136719l12.523437 16.035156c4.152344 5.3125 11.828125 6.257812 17.140625 2.105468l9.570313-7.476562zm0 0" fill="#e54a4a"/><path d="m453.46875 467.234375c-8.09375 0-416.234375 0-422.746094 0-3.558594 0-6.441406 2.882813-6.441406 6.4375v31.890625c0 3.554688 2.882812 6.4375 6.441406 6.4375h422.746094c3.554688 0 6.441406-2.882812 6.441406-6.4375v-31.890625c0-3.554687-2.886718-6.4375-6.441406-6.4375zm0 0" fill="#00aaf0"/><path d="m453.46875 484.699219c-16.945312 0-403.203125 0-422.75 0-3.554688 0-6.4375-2.882813-6.4375-6.441407v27.300782c0 3.558594 2.882812 6.441406 6.4375 6.441406h422.75c3.554688 0 6.441406-2.882812 6.441406-6.441406v-27.300782c0 3.558594-2.886718 6.441407-6.441406 6.441407zm0 0" fill="#039add"/><path d="m220.777344 372.324219c0 9.785156-7.933594 17.722656-17.722656 17.722656-9.785157 0-17.722657-7.9375-17.722657-17.722656 0-9.785157 7.9375-17.722657 17.722657-17.722657 9.789062 0 17.722656 7.9375 17.722656 17.722657zm0 0" fill="#75798a"/><path d="m211.476562 372.324219c0-4.605469 1.769532-8.785157 4.648438-11.933594-3.238281-3.546875-7.886719-5.785156-13.070312-5.785156-9.785157 0-17.722657 7.933593-17.722657 17.71875 0 9.785156 7.9375 17.71875 17.722657 17.71875 5.183593 0 9.832031-2.238281 13.070312-5.785157-2.878906-3.148437-4.648438-7.328124-4.648438-11.933593zm0 0" fill="#7e8292"/><path d="m438.523438 0h-96.800782c-3.554687 0-6.4375 2.882812-6.4375 6.441406v31.886719c0 3.554687 2.882813 6.4375 6.4375 6.4375h96.800782c3.558593 0 6.441406-2.882813 6.441406-6.4375v-31.886719c0-3.558594-2.882813-6.441406-6.441406-6.441406zm0 0" fill="#75798a"/><path d="m438.523438 17.464844h-96.800782c-3.554687 0-6.4375-2.882813-6.4375-6.4375v27.300781c0 3.558594 2.882813 6.441406 6.4375 6.441406h96.800782c3.558593 0 6.441406-2.882812 6.441406-6.441406v-27.300781c0 3.554687-2.882813 6.4375-6.441406 6.4375zm0 0" fill="#7e8292"/></svg>